# xmcd
#
# Track frame offsets: 
#        150
#        16111
#        35805
#        49185
#        64122
#        80730
#        98140
#        113911
#        131453
#        148929
#        168604
#        189075
#        206584
#
# Disc length: 2995 seconds
#
# Revision: 0
# Processed by: cddbd v1.5.2PL0 Copyright (c) Steve Scherf et al.
# Submitted via: ExactAudioCopy v1.3
#
DISCID=b70bb10d
DTITLE=진시몬 - 기타하나
DYEAR=2002
DGENRE=Pop
TTITLE0=무정 블루스
TTITLE1=나무와 새
TTITLE2=그 겨울의 찻집
TTITLE3=그대 그리고 나
TTITLE4=아마도 그건
TTITLE5=홀로 가는 길
TTITLE6=이름 모를 소녀
TTITLE7=산골 소년의 사랑이야기
TTITLE8=하얀 나비
TTITLE9=해후
TTITLE10=암연
TTITLE11=잊혀진 계절
TTITLE12=둠바둠바
EXTD=
EXTT0=
EXTT1=
EXTT2=
EXTT3=
EXTT4=
EXTT5=
EXTT6=
EXTT7=
EXTT8=
EXTT9=
EXTT10=
EXTT11=
EXTT12=
PLAYORDER=
